<?xml version="1.0" encoding="utf-8"?>
<!-- Generator: Adobe Illustrator 25.1.0, SVG Export Plug-In . SVG Version: 6.00 Build 0)  -->
<svg version="1.0" id="Layer_1" xmlns="http://www.w3.org/2000/svg" xmlns:xlink="http://www.w3.org/1999/xlink" x="0px" y="0px"
	 viewBox="0 0 280 300" enable-background="new 0 0 280 300" xml:space="preserve">
<g>
</g>
<g>
	<path fill-opacity="0.0941" d="M222.7,42.13h-93.49v204.95h93.49c7.88-0.02,14.36-6.5,14.38-14.38V56.51
		C237.06,48.63,230.58,42.15,222.7,42.13L222.7,42.13z"/>
	<g>
		<path fill-opacity="0.2" d="M211.91,52.92h-82.7v204.95h82.7c7.88-0.02,14.36-6.5,14.38-14.38V67.3
			C226.27,59.42,219.79,52.94,211.91,52.92L211.91,52.92z"/>
		<path fill-opacity="0.2" d="M211.91,52.92h-82.7v183.38h82.7c7.88-0.02,14.36-6.5,14.38-14.38V67.3
			C226.27,59.42,219.79,52.94,211.91,52.92L211.91,52.92z"/>
		<path fill-opacity="0.2" d="M201.13,52.92h-71.91v183.38h71.91c7.88-0.02,14.36-6.5,14.38-14.38V67.3
			C215.49,59.42,209.01,52.94,201.13,52.92L201.13,52.92z"/>
	</g>
	<path fill="#107C41" d="M57.3,52.92h143.83c7.89,0,14.38,6.49,14.38,14.38v143.83c0,7.89-6.49,14.38-14.38,14.38H57.3
		c-7.89,0-14.38-6.49-14.38-14.38V67.3C42.92,59.41,49.41,52.92,57.3,52.92L57.3,52.92z"/>
	<path fill="#FFFFFF" d="M81.03,193.15l34.9-54.08L83.97,85.28h25.73l17.45,34.38c1.6,3.26,2.71,5.7,3.31,7.3h0.23
		c1.15-2.61,2.36-5.14,3.61-7.6l18.65-34.08h23.62l-32.8,53.48l33.63,54.39h-25.13l-20.16-37.76c-0.95-1.61-1.75-3.29-2.41-5.04
		h-0.3c-0.59,1.71-1.37,3.35-2.33,4.89l-20.76,37.91L81.03,193.15z"/>
</g>
</svg>
